<svg width="24" height="25" viewBox="0 0 24 25" fill="none" xmlns="http://www.w3.org/2000/svg">
<path d="M8.30769 0.5C8.30769 6.8336 4.86096 12.5 0 12.5C4.86096 12.5 8.30769 18.1668 8.30769 24.5C8.30769 18.1668 11.7544 12.5 16.6154 12.5C11.7544 12.5 8.30769 6.8336 8.30769 0.5Z" fill="#080019"/>
<path d="M18 12.5C18 15.6672 16.2773 18.5 13.8461 18.5C16.2773 18.5 18 21.3336 18 24.5C18 21.3336 19.7227 18.5 22.1538 18.5C19.7227 18.5 18 15.6672 18 12.5Z" fill="#080019"/>
<path d="M19.8462 0.5C19.8462 3.6668 18.1235 6.5 15.6923 6.5C18.1231 6.5 19.8462 9.3336 19.8462 12.5C19.8462 9.3336 21.5688 6.5 24 6.5C21.5688 6.5 19.8462 3.6668 19.8462 0.5Z" fill="#080019"/>
</svg>
