<svg width="34" height="34" viewBox="0 0 34 34" fill="none" xmlns="http://www.w3.org/2000/svg">
<mask id="mask0_226_1809" style="mask-type:alpha" maskUnits="userSpaceOnUse" x="11" y="9" width="11" height="11">
<path d="M20.7773 11.5557C20.2226 11.5557 19.6883 11.6627 19.1787 11.877C18.6704 12.0907 18.2189 12.3954 17.8271 12.7871C17.4355 13.1788 17.1328 13.6278 16.9238 14.1328C16.7149 14.6377 16.6113 15.1695 16.6113 15.7227V16.2227H17.1113C17.6644 16.2226 18.1954 16.1181 18.7002 15.9092C19.2053 15.7002 19.6551 15.3976 20.0469 15.0059C20.4384 14.6143 20.7424 14.1633 20.9561 13.6553C21.1704 13.1455 21.2773 12.6107 21.2773 12.0557V11.5557H20.7773ZM11.7227 10.2227C11.7227 10.7757 11.8261 11.3087 12.0342 11.8174C12.2429 12.3276 12.5458 12.7802 12.9385 13.1729C13.3311 13.5655 13.7837 13.8684 14.2939 14.0771C14.8027 14.2853 15.3356 14.3886 15.8887 14.3887H16.3887V13.8887C16.3886 13.3337 16.2815 12.8008 16.0664 12.2949C15.8525 11.792 15.5489 11.3438 15.1582 10.9531C14.7674 10.5623 14.3185 10.2589 13.8154 10.0449C13.3097 9.8299 12.7775 9.72271 12.2227 9.72266H11.7227V10.2227ZM16.3887 14.626H15.8887C15.3026 14.6259 14.7411 14.5143 14.2012 14.29C13.6607 14.0656 13.1861 13.7486 12.7744 13.3369C12.3634 12.9259 12.0494 12.4522 11.8301 11.9131C11.6101 11.3724 11.5001 10.8101 11.5 10.2227V9.5H12.2227C12.7974 9.50006 13.3536 9.61133 13.8945 9.83594C14.4352 10.0604 14.9095 10.3782 15.3213 10.79C15.6052 11.074 15.8391 11.3832 16.0244 11.7178C16.2124 12.0571 16.3573 12.4202 16.459 12.8086L16.7295 13.8408L17.3496 12.9727C17.3881 12.9188 17.4312 12.8658 17.4785 12.8145C17.5345 12.7538 17.5961 12.6901 17.6631 12.623C18.0749 12.2112 18.5502 11.8935 19.0908 11.6689C19.6306 11.4449 20.1915 11.3331 20.7773 11.333H21.5V12.0557C21.5 12.6418 21.3883 13.2032 21.1641 13.7432C20.9396 14.2838 20.6218 14.7581 20.21 15.1699C19.7982 15.5817 19.327 15.8961 18.793 16.1152C18.2582 16.3346 17.6988 16.4443 17.1113 16.4443H16.6113V19.5H16.3887V14.626Z" fill="#E3E3E3" stroke="black"/>
</mask>
<g mask="url(#mask0_226_1809)">
<path d="M34 17C34 26.3888 26.3888 34 17 34C7.61116 34 0 26.3888 0 17C0 7.61116 7.61116 0 17 0C26.3888 0 34 7.61116 34 17Z" fill="#D9D9D9"/>
</g>
<path fill-rule="evenodd" clip-rule="evenodd" d="M7 29C7 29.3383 7.0157 29.6717 7.0471 30L9.22858 31C9.07619 30.3669 9 29.7003 9 29C9 28.0167 9.16667 27.0917 9.5 26.225C9.83333 25.3583 10.2917 24.575 10.875 23.875L14 27V28C14 28.55 14.1958 29.0208 14.5875 29.4125C14.9792 29.8042 15.45 30 16 30V32.8L19.5 32.75L21.75 29.375C21.8333 29.2417 21.8958 29.1083 21.9375 28.975C21.9792 28.8417 22 28.7 22 28.55V27.5C22 27.2167 21.9042 26.9792 21.7125 26.7875C21.5208 26.5958 21.2833 26.5 21 26.5H19.5L18.1 24.75C17.9167 24.5167 17.6875 24.3333 17.4125 24.2C17.1375 24.0667 16.85 24 16.55 24H13V22.075C13.5833 21.7417 14.2125 21.4792 14.8875 21.2875C15.5625 21.0958 16.2667 21 17 21C19.2167 21 21.1042 21.7792 22.6625 23.3375C24.2208 24.8958 25 26.7833 25 29C25 29.6986 24.9221 30.3653 24.7663 31L27 29C27 27.6167 26.7375 26.3167 26.2125 25.1C25.6875 23.8833 24.975 22.825 24.075 21.925C23.175 21.025 22.1167 20.3125 20.9 19.7875C19.6833 19.2625 18.3833 19 17 19C15.6167 19 14.3167 19.2625 13.1 19.7875C11.8833 20.3125 10.825 21.025 9.925 21.925C9.025 22.825 8.3125 23.8833 7.7875 25.1C7.2625 26.3167 7 27.6167 7 29Z" fill="#E3E3E3"/>
<circle cx="17" cy="17" r="16" stroke="#D9D9D9" stroke-width="2"/>
<circle cx="5" cy="7" r="4" fill="#D9D9D9"/>
</svg>
