<svg width="24" height="24" viewBox="0 0 24 24" fill="none" xmlns="http://www.w3.org/2000/svg">
<path d="M8.07502 20C7.89169 20 7.72086 19.9542 7.56252 19.8625C7.40419 19.7708 7.28336 19.6417 7.20002 19.475L5.25002 16H6.70002L7.70002 18H10V17H8.30002L7.30002 15H4.70002L3.27502 12.5C3.24169 12.4167 3.21252 12.3333 3.18752 12.25C3.16252 12.1667 3.15002 12.0833 3.15002 12C3.15002 11.9333 3.19169 11.7667 3.27502 11.5L4.70002 9H7.30002L8.30002 7H10V6H7.70002L6.70002 8H5.25002L7.20002 4.525C7.28336 4.35833 7.40419 4.22917 7.56252 4.1375C7.72086 4.04583 7.89169 4 8.07502 4H10.5C10.7834 4 11.0209 4.09583 11.2125 4.2875C11.4042 4.47917 11.5 4.71667 11.5 5V9H10L9.00002 10H11.5V13H9.30002L8.30002 11H6.00002L5.00002 12H7.70002L8.70002 14H11.5V19C11.5 19.2833 11.4042 19.5208 11.2125 19.7125C11.0209 19.9042 10.7834 20 10.5 20H8.07502ZM14 20C13.45 20 12.9792 19.8042 12.5875 19.4125C12.1959 19.0208 12 18.55 12 18C12 17.6167 12.0917 17.2792 12.275 16.9875C12.4584 16.6958 12.7 16.4583 13 16.275V7.725C12.7 7.54167 12.4584 7.30417 12.275 7.0125C12.0917 6.72083 12 6.38333 12 6C12 5.45 12.1959 4.97917 12.5875 4.5875C12.9792 4.19583 13.45 4 14 4C14.55 4 15.0209 4.19583 15.4125 4.5875C15.8042 4.97917 16 5.45 16 6C16 6.38333 15.9084 6.72083 15.725 7.0125C15.5417 7.30417 15.3 7.54167 15 7.725V10.25L17 9.05C17 8.48333 17.1959 8 17.5875 7.6C17.9792 7.2 18.45 7 19 7C19.55 7 20.0209 7.19583 20.4125 7.5875C20.8042 7.97917 21 8.45 21 9C21 9.55 20.8042 10.0208 20.4125 10.4125C20.0209 10.8042 19.55 11 19 11C18.8167 11 18.6459 10.9792 18.4875 10.9375C18.3292 10.8958 18.175 10.8333 18.025 10.75L15.75 12.125L18.275 14.125C18.3917 14.075 18.5084 14.0417 18.625 14.025C18.7417 14.0083 18.8667 14 19 14C19.55 14 20.0209 14.1958 20.4125 14.5875C20.8042 14.9792 21 15.45 21 16C21 16.55 20.8042 17.0208 20.4125 17.4125C20.0209 17.8042 19.55 18 19 18C18.3834 18 17.8792 17.7667 17.4875 17.3C17.0959 16.8333 16.9417 16.3 17.025 15.7L15 14.075V16.3C15.3 16.4833 15.5375 16.7208 15.7125 17.0125C15.8875 17.3042 15.975 17.6333 15.975 18C15.975 18.55 15.7834 19.0208 15.4 19.4125C15.0167 19.8042 14.55 20 14 20Z" fill="#E3E3E3"/>
</svg>
